# xmcd CD database file
#
# Track frame offsets:
#	150
#	15667
#	34241
#	56071
#	70744
#	93781
#	107394
#	129888
#	143237
#
# Disc length: 2087 seconds
#
# Revision: 1
# Processed by: cddbd v1.5.1PL2 Copyright (c) Steve Scherf et al.
# Submitted via: CDex 1.51
#
DISCID=6d082509
DTITLE=Marc Benno - Ambush
DYEAR=1973
DGENRE=Blues
TTITLE0=Marc Benno - poor boy
TTITLE1=Marc Benno - southern woman
TTITLE2=Marc Benno - jive fade jive
TTITLE3=Marc Benno - hall street jive
TTITLE4=Marc Benno - share
TTITLE5=Marc Benno - donut man
TTITLE6=Marc Benno - sunshine feelin
TTITLE7=Marc Benno - here to stay blues
TTITLE8=Marc Benno - either way it happens
EXTD=YEAR: 1973
EXTT0=
EXTT1=
EXTT2=
EXTT3=
EXTT4=
EXTT5=
EXTT6=
EXTT7=
EXTT8=
PLAYORDER=
